<?xml version="1.0" encoding="UTF-8" standalone="no"?><!DOCTYPE svg PUBLIC "-//W3C//DTD SVG 1.1//EN" "http://www.w3.org/Graphics/SVG/1.1/DTD/svg11.dtd"><svg width="100%" height="100%" viewBox="0 0 97 87" version="1.1" xmlns="http://www.w3.org/2000/svg" xmlns:xlink="http://www.w3.org/1999/xlink" xml:space="preserve" xmlns:serif="http://www.serif.com/" style="fill-rule:evenodd;clip-rule:evenodd;"><clipPath id="_clip1"><rect x="0.324" y="0.389" width="96.535" height="85.889"/></clipPath><g clip-path="url(#_clip1)"><circle cx="48.591" cy="43.333" r="8.604" style="fill:#61dafb;"/><g><ellipse cx="48.591" cy="43.333" rx="46.169" ry="17.628" style="fill:none;stroke:#61dafb;stroke-width:4.2px;"/><path d="M63.858,34.519c12.74,22.068 16.244,43.933 7.818,48.798c-8.426,4.865 -25.61,-9.102 -38.351,-31.169c-12.741,-22.068 -16.244,-43.933 -7.818,-48.798c8.426,-4.865 25.61,9.102 38.351,31.169Z" style="fill:none;stroke:#61dafb;stroke-width:4.2px;"/><path d="M63.858,52.148c-12.741,22.067 -29.925,36.034 -38.351,31.169c-8.426,-4.865 -4.923,-26.73 7.818,-48.798c12.741,-22.067 29.925,-36.034 38.351,-31.169c8.426,4.865 4.922,26.73 -7.818,48.798Z" style="fill:none;stroke:#61dafb;stroke-width:4.2px;"/></g></g></svg>